<?xml version="1.0" standalone="no"?>
<!DOCTYPE svg PUBLIC "-//W3C//DTD SVG 20010904//EN"
 "http://www.w3.org/TR/2001/REC-SVG-20010904/DTD/svg10.dtd">
<svg version="1.0" xmlns="http://www.w3.org/2000/svg"
 width="400.000000pt" height="400.000000pt" viewBox="0 0 400.000000 400.000000"
 preserveAspectRatio="xMidYMid meet">

<g transform="translate(0.000000,400.000000) scale(0.100000,-0.100000)"
fill="#000000" stroke="none">
<path d="M240 3989 c-113 -19 -191 -76 -219 -162 -10 -29 -13 -436 -13 -1835
0 -1767 1 -1798 20 -1843 11 -25 37 -60 58 -77 66 -55 110 -65 307 -70 l177
-4 0 65 0 65 -93 4 c-116 5 -152 23 -187 93 l-25 50 -5 755 -5 755 -24 45
c-13 25 -38 59 -56 77 -34 33 -124 83 -150 83 -8 0 -15 5 -15 10 0 6 9 10 20
10 37 0 117 48 158 95 74 85 72 56 72 824 0 377 5 719 10 760 17 132 62 169
218 179 l82 5 0 63 0 64 -137 -1 c-76 -1 -163 -5 -193 -10z"/>
<path d="M3440 3936 l0 -63 83 -6 c110 -7 158 -28 188 -81 l24 -41 5 -755 5
-755 27 -55 c43 -87 102 -141 184 -166 l44 -13 0 893 c0 985 2 949 -63 1016
-64 66 -161 90 -369 90 l-128 0 0 -64z"/>
<path d="M1470 3184 c-165 -44 -313 -163 -395 -318 -126 -237 -122 -583 10
-807 l35 -60 -33 -57 c-140 -240 -140 -602 1 -836 45 -75 139 -176 203 -217
27 -17 87 -44 132 -60 l82 -29 763 0 762 0 0 260 0 261 -677 -3 c-741 -3 -704
-6 -760 54 -87 93 -61 300 45 357 15 8 222 11 706 11 l686 0 0 260 0 260 -674
0 c-558 0 -679 2 -707 14 -149 62 -142 349 9 407 13 5 327 9 698 9 l674 0 0
255 0 255 -752 -1 c-631 0 -762 -3 -808 -15z"/>
<path d="M3912 1964 c-62 -31 -124 -98 -149 -162 -16 -43 -18 -104 -23 -802
l-5 -755 -23 -38 c-34 -54 -72 -70 -179 -75 l-93 -4 0 -64 0 -64 153 0 c238 0
325 32 380 139 l27 55 0 898 c0 1019 10 921 -88 872z"/>
</g>
</svg>
